<?xml version="1.0" encoding="UTF-8" standalone="no"?>
<!DOCTYPE svg PUBLIC "-//W3C//DTD SVG 1.1//EN"
 "http://www.w3.org/Graphics/SVG/1.1/DTD/svg11.dtd">
<!-- Generated by graphviz version 2.36.0 (20140111.2315)
 -->
<!-- Title: controllers_diagram Pages: 1 -->
<svg width="944pt" height="926pt"
 viewBox="0.00 0.00 944.00 926.00" xmlns="http://www.w3.org/2000/svg" xmlns:xlink="http://www.w3.org/1999/xlink">
<g id="graph0" class="graph" transform="scale(1 1) rotate(0) translate(4 922)">
<title>controllers_diagram</title>
<polygon fill="none" stroke="none" points="-4,4 -4,-922 940,-922 940,4 -4,4"/>
<!-- _diagram_info -->
<g id="node1" class="node"><title>_diagram_info</title>
<text text-anchor="start" x="730" y="-329.6" font-family="Times,serif" font-size="13.00">Controllers diagram</text>
<text text-anchor="start" x="730" y="-315.6" font-family="Times,serif" font-size="13.00">Date: Dec 01 2015 &#45; 19:35</text>
<text text-anchor="start" x="730" y="-301.6" font-family="Times,serif" font-size="13.00">Migration version: 20151107171723</text>
<text text-anchor="start" x="730" y="-287.6" font-family="Times,serif" font-size="13.00">Generated by RailRoady 1.4.1</text>
<text text-anchor="start" x="730" y="-273.6" font-family="Times,serif" font-size="13.00">http://railroady.prestonlee.com</text>
</g>
<!-- Admin::CategoriesController -->
<g id="node2" class="node"><title>Admin::CategoriesController</title>
<path fill="none" stroke="black" d="M297,-266.5C297,-266.5 449,-266.5 449,-266.5 455,-266.5 461,-272.5 461,-278.5 461,-278.5 461,-467.5 461,-467.5 461,-473.5 455,-479.5 449,-479.5 449,-479.5 297,-479.5 297,-479.5 291,-479.5 285,-473.5 285,-467.5 285,-467.5 285,-278.5 285,-278.5 285,-272.5 291,-266.5 297,-266.5"/>
<text text-anchor="middle" x="373" y="-464.3" font-family="Times,serif" font-size="14.00">Admin::CategoriesController</text>
<polyline fill="none" stroke="black" points="285,-456.5 461,-456.5 "/>
<text text-anchor="start" x="293" y="-441.3" font-family="Times,serif" font-size="14.00">create</text>
<text text-anchor="start" x="293" y="-426.3" font-family="Times,serif" font-size="14.00">destroy</text>
<text text-anchor="start" x="293" y="-411.3" font-family="Times,serif" font-size="14.00">edit</text>
<text text-anchor="start" x="293" y="-396.3" font-family="Times,serif" font-size="14.00">index</text>
<text text-anchor="start" x="293" y="-381.3" font-family="Times,serif" font-size="14.00">new</text>
<text text-anchor="start" x="293" y="-366.3" font-family="Times,serif" font-size="14.00">show</text>
<text text-anchor="start" x="293" y="-351.3" font-family="Times,serif" font-size="14.00">update</text>
<polyline fill="none" stroke="black" points="285,-343.5 461,-343.5 "/>
<polyline fill="none" stroke="black" points="285,-319.5 461,-319.5 "/>
<text text-anchor="start" x="293" y="-304.3" font-family="Times,serif" font-size="14.00">_layout</text>
<text text-anchor="start" x="293" y="-289.3" font-family="Times,serif" font-size="14.00">admin_category_params</text>
<text text-anchor="start" x="293" y="-274.3" font-family="Times,serif" font-size="14.00">find_category</text>
</g>
<!-- Admin::UsersController -->
<g id="node3" class="node"><title>Admin::UsersController</title>
<path fill="none" stroke="black" d="M126,-646.5C126,-646.5 251,-646.5 251,-646.5 257,-646.5 263,-652.5 263,-658.5 263,-658.5 263,-847.5 263,-847.5 263,-853.5 257,-859.5 251,-859.5 251,-859.5 126,-859.5 126,-859.5 120,-859.5 114,-853.5 114,-847.5 114,-847.5 114,-658.5 114,-658.5 114,-652.5 120,-646.5 126,-646.5"/>
<text text-anchor="middle" x="188.5" y="-844.3" font-family="Times,serif" font-size="14.00">Admin::UsersController</text>
<polyline fill="none" stroke="black" points="114,-836.5 263,-836.5 "/>
<text text-anchor="start" x="122" y="-821.3" font-family="Times,serif" font-size="14.00">create</text>
<text text-anchor="start" x="122" y="-806.3" font-family="Times,serif" font-size="14.00">destroy</text>
<text text-anchor="start" x="122" y="-791.3" font-family="Times,serif" font-size="14.00">edit</text>
<text text-anchor="start" x="122" y="-776.3" font-family="Times,serif" font-size="14.00">index</text>
<text text-anchor="start" x="122" y="-761.3" font-family="Times,serif" font-size="14.00">new</text>
<text text-anchor="start" x="122" y="-746.3" font-family="Times,serif" font-size="14.00">show</text>
<text text-anchor="start" x="122" y="-731.3" font-family="Times,serif" font-size="14.00">update</text>
<polyline fill="none" stroke="black" points="114,-723.5 263,-723.5 "/>
<polyline fill="none" stroke="black" points="114,-699.5 263,-699.5 "/>
<text text-anchor="start" x="122" y="-684.3" font-family="Times,serif" font-size="14.00">_layout</text>
<text text-anchor="start" x="122" y="-669.3" font-family="Times,serif" font-size="14.00">admin_user_params</text>
<text text-anchor="start" x="122" y="-654.3" font-family="Times,serif" font-size="14.00">find_user</text>
</g>
<!-- Admin::AdminController -->
<g id="node4" class="node"><title>Admin::AdminController</title>
<path fill="none" stroke="black" d="M753,-19.5C753,-19.5 885,-19.5 885,-19.5 891,-19.5 897,-25.5 897,-31.5 897,-31.5 897,-115.5 897,-115.5 897,-121.5 891,-127.5 885,-127.5 885,-127.5 753,-127.5 753,-127.5 747,-127.5 741,-121.5 741,-115.5 741,-115.5 741,-31.5 741,-31.5 741,-25.5 747,-19.5 753,-19.5"/>
<text text-anchor="middle" x="819" y="-112.3" font-family="Times,serif" font-size="14.00">Admin::AdminController</text>
<polyline fill="none" stroke="black" points="741,-104.5 897,-104.5 "/>
<text text-anchor="start" x="749" y="-89.3" font-family="Times,serif" font-size="14.00">index</text>
<polyline fill="none" stroke="black" points="741,-81.5 897,-81.5 "/>
<polyline fill="none" stroke="black" points="741,-57.5 897,-57.5 "/>
<text text-anchor="start" x="749" y="-42.3" font-family="Times,serif" font-size="14.00">_layout</text>
<text text-anchor="start" x="749" y="-27.3" font-family="Times,serif" font-size="14.00">check_admin</text>
</g>
<!-- Admin::LessonRatingsController -->
<g id="node5" class="node"><title>Admin::LessonRatingsController</title>
<path fill="none" stroke="black" d="M506,-266.5C506,-266.5 679,-266.5 679,-266.5 685,-266.5 691,-272.5 691,-278.5 691,-278.5 691,-452.5 691,-452.5 691,-458.5 685,-464.5 679,-464.5 679,-464.5 506,-464.5 506,-464.5 500,-464.5 494,-458.5 494,-452.5 494,-452.5 494,-278.5 494,-278.5 494,-272.5 500,-266.5 506,-266.5"/>
<text text-anchor="middle" x="592.5" y="-449.3" font-family="Times,serif" font-size="14.00">Admin::LessonRatingsController</text>
<polyline fill="none" stroke="black" points="494,-441.5 691,-441.5 "/>
<text text-anchor="start" x="502" y="-426.3" font-family="Times,serif" font-size="14.00">create</text>
<text text-anchor="start" x="502" y="-411.3" font-family="Times,serif" font-size="14.00">destroy</text>
<text text-anchor="start" x="502" y="-396.3" font-family="Times,serif" font-size="14.00">edit</text>
<text text-anchor="start" x="502" y="-381.3" font-family="Times,serif" font-size="14.00">index</text>
<text text-anchor="start" x="502" y="-366.3" font-family="Times,serif" font-size="14.00">lesson_rating_params</text>
<text text-anchor="start" x="502" y="-351.3" font-family="Times,serif" font-size="14.00">new</text>
<text text-anchor="start" x="502" y="-336.3" font-family="Times,serif" font-size="14.00">show</text>
<text text-anchor="start" x="502" y="-321.3" font-family="Times,serif" font-size="14.00">update</text>
<polyline fill="none" stroke="black" points="494,-313.5 691,-313.5 "/>
<polyline fill="none" stroke="black" points="494,-289.5 691,-289.5 "/>
<text text-anchor="start" x="502" y="-274.3" font-family="Times,serif" font-size="14.00">_layout</text>
</g>
<!-- Admin::MessagesController -->
<g id="node6" class="node"><title>Admin::MessagesController</title>
<path fill="none" stroke="black" d="M88,-380.5C88,-380.5 235,-380.5 235,-380.5 241,-380.5 247,-386.5 247,-392.5 247,-392.5 247,-566.5 247,-566.5 247,-572.5 241,-578.5 235,-578.5 235,-578.5 88,-578.5 88,-578.5 82,-578.5 76,-572.5 76,-566.5 76,-566.5 76,-392.5 76,-392.5 76,-386.5 82,-380.5 88,-380.5"/>
<text text-anchor="middle" x="161.5" y="-563.3" font-family="Times,serif" font-size="14.00">Admin::MessagesController</text>
<polyline fill="none" stroke="black" points="76,-555.5 247,-555.5 "/>
<text text-anchor="start" x="84" y="-540.3" font-family="Times,serif" font-size="14.00">admin_message_params</text>
<text text-anchor="start" x="84" y="-525.3" font-family="Times,serif" font-size="14.00">create</text>
<text text-anchor="start" x="84" y="-510.3" font-family="Times,serif" font-size="14.00">destroy</text>
<text text-anchor="start" x="84" y="-495.3" font-family="Times,serif" font-size="14.00">index</text>
<text text-anchor="start" x="84" y="-480.3" font-family="Times,serif" font-size="14.00">new</text>
<text text-anchor="start" x="84" y="-465.3" font-family="Times,serif" font-size="14.00">received</text>
<text text-anchor="start" x="84" y="-450.3" font-family="Times,serif" font-size="14.00">sent</text>
<text text-anchor="start" x="84" y="-435.3" font-family="Times,serif" font-size="14.00">talks</text>
<polyline fill="none" stroke="black" points="76,-427.5 247,-427.5 "/>
<polyline fill="none" stroke="black" points="76,-403.5 247,-403.5 "/>
<text text-anchor="start" x="84" y="-388.3" font-family="Times,serif" font-size="14.00">_layout</text>
</g>
<!-- Admin::LessonsController -->
<g id="node7" class="node"><title>Admin::LessonsController</title>
<path fill="none" stroke="black" d="M316,-513.5C316,-513.5 453,-513.5 453,-513.5 459,-513.5 465,-519.5 465,-525.5 465,-525.5 465,-729.5 465,-729.5 465,-735.5 459,-741.5 453,-741.5 453,-741.5 316,-741.5 316,-741.5 310,-741.5 304,-735.5 304,-729.5 304,-729.5 304,-525.5 304,-525.5 304,-519.5 310,-513.5 316,-513.5"/>
<text text-anchor="middle" x="384.5" y="-726.3" font-family="Times,serif" font-size="14.00">Admin::LessonsController</text>
<polyline fill="none" stroke="black" points="304,-718.5 465,-718.5 "/>
<text text-anchor="start" x="312" y="-703.3" font-family="Times,serif" font-size="14.00">create</text>
<text text-anchor="start" x="312" y="-688.3" font-family="Times,serif" font-size="14.00">destroy</text>
<text text-anchor="start" x="312" y="-673.3" font-family="Times,serif" font-size="14.00">edit</text>
<text text-anchor="start" x="312" y="-658.3" font-family="Times,serif" font-size="14.00">index</text>
<text text-anchor="start" x="312" y="-643.3" font-family="Times,serif" font-size="14.00">new</text>
<text text-anchor="start" x="312" y="-628.3" font-family="Times,serif" font-size="14.00">new_rating</text>
<text text-anchor="start" x="312" y="-613.3" font-family="Times,serif" font-size="14.00">show</text>
<text text-anchor="start" x="312" y="-598.3" font-family="Times,serif" font-size="14.00">update</text>
<polyline fill="none" stroke="black" points="304,-590.5 465,-590.5 "/>
<polyline fill="none" stroke="black" points="304,-566.5 465,-566.5 "/>
<text text-anchor="start" x="312" y="-551.3" font-family="Times,serif" font-size="14.00">_layout</text>
<text text-anchor="start" x="312" y="-536.3" font-family="Times,serif" font-size="14.00">admin_lesson_params</text>
<text text-anchor="start" x="312" y="-521.3" font-family="Times,serif" font-size="14.00">find_lesson</text>
</g>
<!-- CategoriesController -->
<g id="node8" class="node"><title>CategoriesController</title>
<path fill="none" stroke="black" d="M183,-0.5C183,-0.5 289,-0.5 289,-0.5 295,-0.5 301,-6.5 301,-12.5 301,-12.5 301,-81.5 301,-81.5 301,-87.5 295,-93.5 289,-93.5 289,-93.5 183,-93.5 183,-93.5 177,-93.5 171,-87.5 171,-81.5 171,-81.5 171,-12.5 171,-12.5 171,-6.5 177,-0.5 183,-0.5"/>
<text text-anchor="middle" x="236" y="-78.3" font-family="Times,serif" font-size="14.00">CategoriesController</text>
<polyline fill="none" stroke="black" points="171,-70.5 301,-70.5 "/>
<text text-anchor="start" x="179" y="-55.3" font-family="Times,serif" font-size="14.00">index</text>
<polyline fill="none" stroke="black" points="171,-47.5 301,-47.5 "/>
<polyline fill="none" stroke="black" points="171,-23.5 301,-23.5 "/>
<text text-anchor="start" x="179" y="-8.3" font-family="Times,serif" font-size="14.00">_layout</text>
</g>
<!-- CommentsController -->
<g id="node9" class="node"><title>CommentsController</title>
<path fill="none" stroke="black" d="M563,-779.5C563,-779.5 671,-779.5 671,-779.5 677,-779.5 683,-785.5 683,-791.5 683,-791.5 683,-905.5 683,-905.5 683,-911.5 677,-917.5 671,-917.5 671,-917.5 563,-917.5 563,-917.5 557,-917.5 551,-911.5 551,-905.5 551,-905.5 551,-791.5 551,-791.5 551,-785.5 557,-779.5 563,-779.5"/>
<text text-anchor="middle" x="617" y="-902.3" font-family="Times,serif" font-size="14.00">CommentsController</text>
<polyline fill="none" stroke="black" points="551,-894.5 683,-894.5 "/>
<text text-anchor="start" x="559" y="-879.3" font-family="Times,serif" font-size="14.00">comment_params</text>
<text text-anchor="start" x="559" y="-864.3" font-family="Times,serif" font-size="14.00">create</text>
<text text-anchor="start" x="559" y="-849.3" font-family="Times,serif" font-size="14.00">index</text>
<text text-anchor="start" x="559" y="-834.3" font-family="Times,serif" font-size="14.00">new</text>
<polyline fill="none" stroke="black" points="551,-826.5 683,-826.5 "/>
<polyline fill="none" stroke="black" points="551,-802.5 683,-802.5 "/>
<text text-anchor="start" x="559" y="-787.3" font-family="Times,serif" font-size="14.00">_layout</text>
</g>
<!-- ContactMessagesController -->
<g id="node10" class="node"><title>ContactMessagesController</title>
<path fill="none" stroke="black" d="M392,-76.5C392,-76.5 535,-76.5 535,-76.5 541,-76.5 547,-82.5 547,-88.5 547,-88.5 547,-217.5 547,-217.5 547,-223.5 541,-229.5 535,-229.5 535,-229.5 392,-229.5 392,-229.5 386,-229.5 380,-223.5 380,-217.5 380,-217.5 380,-88.5 380,-88.5 380,-82.5 386,-76.5 392,-76.5"/>
<text text-anchor="middle" x="463.5" y="-214.3" font-family="Times,serif" font-size="14.00">ContactMessagesController</text>
<polyline fill="none" stroke="black" points="380,-206.5 547,-206.5 "/>
<text text-anchor="start" x="388" y="-191.3" font-family="Times,serif" font-size="14.00">contact_message_params</text>
<text text-anchor="start" x="388" y="-176.3" font-family="Times,serif" font-size="14.00">create</text>
<text text-anchor="start" x="388" y="-161.3" font-family="Times,serif" font-size="14.00">index</text>
<text text-anchor="start" x="388" y="-146.3" font-family="Times,serif" font-size="14.00">new</text>
<text text-anchor="start" x="388" y="-131.3" font-family="Times,serif" font-size="14.00">show</text>
<polyline fill="none" stroke="black" points="380,-123.5 547,-123.5 "/>
<polyline fill="none" stroke="black" points="380,-99.5 547,-99.5 "/>
<text text-anchor="start" x="388" y="-84.3" font-family="Times,serif" font-size="14.00">_layout</text>
</g>
<!-- ApplicationController -->
<g id="node11" class="node"><title>ApplicationController</title>
<path fill="none" stroke="black" d="M12,-0.5C12,-0.5 128,-0.5 128,-0.5 134,-0.5 140,-6.5 140,-12.5 140,-12.5 140,-81.5 140,-81.5 140,-87.5 134,-93.5 128,-93.5 128,-93.5 12,-93.5 12,-93.5 6,-93.5 0,-87.5 0,-81.5 0,-81.5 0,-12.5 0,-12.5 0,-6.5 6,-0.5 12,-0.5"/>
<text text-anchor="middle" x="70" y="-78.3" font-family="Times,serif" font-size="14.00">ApplicationController</text>
<polyline fill="none" stroke="black" points="0,-70.5 140,-70.5 "/>
<text text-anchor="start" x="8" y="-55.3" font-family="Times,serif" font-size="14.00">after_sign_in_path_for</text>
<polyline fill="none" stroke="black" points="0,-47.5 140,-47.5 "/>
<polyline fill="none" stroke="black" points="0,-23.5 140,-23.5 "/>
<text text-anchor="start" x="8" y="-8.3" font-family="Times,serif" font-size="14.00">_layout</text>
</g>
<!-- LessonRatingsController -->
<g id="node12" class="node"><title>LessonRatingsController</title>
<path fill="none" stroke="black" d="M734,-722.5C734,-722.5 862,-722.5 862,-722.5 868,-722.5 874,-728.5 874,-734.5 874,-734.5 874,-848.5 874,-848.5 874,-854.5 868,-860.5 862,-860.5 862,-860.5 734,-860.5 734,-860.5 728,-860.5 722,-854.5 722,-848.5 722,-848.5 722,-734.5 722,-734.5 722,-728.5 728,-722.5 734,-722.5"/>
<text text-anchor="middle" x="798" y="-845.3" font-family="Times,serif" font-size="14.00">LessonRatingsController</text>
<polyline fill="none" stroke="black" points="722,-837.5 874,-837.5 "/>
<text text-anchor="start" x="730" y="-822.3" font-family="Times,serif" font-size="14.00">create</text>
<text text-anchor="start" x="730" y="-807.3" font-family="Times,serif" font-size="14.00">index</text>
<text text-anchor="start" x="730" y="-792.3" font-family="Times,serif" font-size="14.00">lesson_rating_params</text>
<text text-anchor="start" x="730" y="-777.3" font-family="Times,serif" font-size="14.00">new</text>
<polyline fill="none" stroke="black" points="722,-769.5 874,-769.5 "/>
<polyline fill="none" stroke="black" points="722,-745.5 874,-745.5 "/>
<text text-anchor="start" x="730" y="-730.3" font-family="Times,serif" font-size="14.00">_layout</text>
</g>
<!-- User::UsersController -->
<g id="node13" class="node"><title>User::UsersController</title>
<path fill="none" stroke="black" d="M126,-133.5C126,-133.5 238,-133.5 238,-133.5 244,-133.5 250,-139.5 250,-145.5 250,-145.5 250,-334.5 250,-334.5 250,-340.5 244,-346.5 238,-346.5 238,-346.5 126,-346.5 126,-346.5 120,-346.5 114,-340.5 114,-334.5 114,-334.5 114,-145.5 114,-145.5 114,-139.5 120,-133.5 126,-133.5"/>
<text text-anchor="middle" x="182" y="-331.3" font-family="Times,serif" font-size="14.00">User::UsersController</text>
<polyline fill="none" stroke="black" points="114,-323.5 250,-323.5 "/>
<text text-anchor="start" x="122" y="-308.3" font-family="Times,serif" font-size="14.00">create</text>
<text text-anchor="start" x="122" y="-293.3" font-family="Times,serif" font-size="14.00">destroy</text>
<text text-anchor="start" x="122" y="-278.3" font-family="Times,serif" font-size="14.00">edit</text>
<text text-anchor="start" x="122" y="-263.3" font-family="Times,serif" font-size="14.00">index</text>
<text text-anchor="start" x="122" y="-248.3" font-family="Times,serif" font-size="14.00">new</text>
<text text-anchor="start" x="122" y="-233.3" font-family="Times,serif" font-size="14.00">show</text>
<text text-anchor="start" x="122" y="-218.3" font-family="Times,serif" font-size="14.00">update</text>
<polyline fill="none" stroke="black" points="114,-210.5 250,-210.5 "/>
<polyline fill="none" stroke="black" points="114,-186.5 250,-186.5 "/>
<text text-anchor="start" x="122" y="-171.3" font-family="Times,serif" font-size="14.00">_layout</text>
<text text-anchor="start" x="122" y="-156.3" font-family="Times,serif" font-size="14.00">find_user</text>
<text text-anchor="start" x="122" y="-141.3" font-family="Times,serif" font-size="14.00">user_params</text>
</g>
<!-- User::MessagesController -->
<g id="node14" class="node"><title>User::MessagesController</title>
<path fill="none" stroke="black" d="M506,-494.5C506,-494.5 640,-494.5 640,-494.5 646,-494.5 652,-500.5 652,-506.5 652,-506.5 652,-725.5 652,-725.5 652,-731.5 646,-737.5 640,-737.5 640,-737.5 506,-737.5 506,-737.5 500,-737.5 494,-731.5 494,-725.5 494,-725.5 494,-506.5 494,-506.5 494,-500.5 500,-494.5 506,-494.5"/>
<text text-anchor="middle" x="573" y="-722.3" font-family="Times,serif" font-size="14.00">User::MessagesController</text>
<polyline fill="none" stroke="black" points="494,-714.5 652,-714.5 "/>
<text text-anchor="start" x="502" y="-699.3" font-family="Times,serif" font-size="14.00">create</text>
<text text-anchor="start" x="502" y="-684.3" font-family="Times,serif" font-size="14.00">destroy</text>
<text text-anchor="start" x="502" y="-669.3" font-family="Times,serif" font-size="14.00">edit</text>
<text text-anchor="start" x="502" y="-654.3" font-family="Times,serif" font-size="14.00">find_message</text>
<text text-anchor="start" x="502" y="-639.3" font-family="Times,serif" font-size="14.00">index</text>
<text text-anchor="start" x="502" y="-624.3" font-family="Times,serif" font-size="14.00">message_params</text>
<text text-anchor="start" x="502" y="-609.3" font-family="Times,serif" font-size="14.00">new</text>
<text text-anchor="start" x="502" y="-594.3" font-family="Times,serif" font-size="14.00">received</text>
<text text-anchor="start" x="502" y="-579.3" font-family="Times,serif" font-size="14.00">sent</text>
<text text-anchor="start" x="502" y="-564.3" font-family="Times,serif" font-size="14.00">show</text>
<text text-anchor="start" x="502" y="-549.3" font-family="Times,serif" font-size="14.00">update</text>
<polyline fill="none" stroke="black" points="494,-541.5 652,-541.5 "/>
<polyline fill="none" stroke="black" points="494,-517.5 652,-517.5 "/>
<text text-anchor="start" x="502" y="-502.3" font-family="Times,serif" font-size="14.00">_layout</text>
</g>
<!-- User::LessonsController -->
<g id="node15" class="node"><title>User::LessonsController</title>
<path fill="none" stroke="black" d="M696,-494.5C696,-494.5 821,-494.5 821,-494.5 827,-494.5 833,-500.5 833,-506.5 833,-506.5 833,-665.5 833,-665.5 833,-671.5 827,-677.5 821,-677.5 821,-677.5 696,-677.5 696,-677.5 690,-677.5 684,-671.5 684,-665.5 684,-665.5 684,-506.5 684,-506.5 684,-500.5 690,-494.5 696,-494.5"/>
<text text-anchor="middle" x="758.5" y="-662.3" font-family="Times,serif" font-size="14.00">User::LessonsController</text>
<polyline fill="none" stroke="black" points="684,-654.5 833,-654.5 "/>
<text text-anchor="start" x="692" y="-639.3" font-family="Times,serif" font-size="14.00">create</text>
<text text-anchor="start" x="692" y="-624.3" font-family="Times,serif" font-size="14.00">edit</text>
<text text-anchor="start" x="692" y="-609.3" font-family="Times,serif" font-size="14.00">find_lesson</text>
<text text-anchor="start" x="692" y="-594.3" font-family="Times,serif" font-size="14.00">index</text>
<text text-anchor="start" x="692" y="-579.3" font-family="Times,serif" font-size="14.00">lesson_params</text>
<text text-anchor="start" x="692" y="-564.3" font-family="Times,serif" font-size="14.00">new</text>
<text text-anchor="start" x="692" y="-549.3" font-family="Times,serif" font-size="14.00">update</text>
<polyline fill="none" stroke="black" points="684,-541.5 833,-541.5 "/>
<polyline fill="none" stroke="black" points="684,-517.5 833,-517.5 "/>
<text text-anchor="start" x="692" y="-502.3" font-family="Times,serif" font-size="14.00">_layout</text>
</g>
<!-- HomepageController -->
<g id="node16" class="node"><title>HomepageController</title>
<path fill="none" stroke="black" d="M392,-779.5C392,-779.5 499,-779.5 499,-779.5 505,-779.5 511,-785.5 511,-791.5 511,-791.5 511,-905.5 511,-905.5 511,-911.5 505,-917.5 499,-917.5 499,-917.5 392,-917.5 392,-917.5 386,-917.5 380,-911.5 380,-905.5 380,-905.5 380,-791.5 380,-791.5 380,-785.5 386,-779.5 392,-779.5"/>
<text text-anchor="middle" x="445.5" y="-902.3" font-family="Times,serif" font-size="14.00">HomepageController</text>
<polyline fill="none" stroke="black" points="380,-894.5 511,-894.5 "/>
<text text-anchor="start" x="388" y="-879.3" font-family="Times,serif" font-size="14.00">about_us</text>
<text text-anchor="start" x="388" y="-864.3" font-family="Times,serif" font-size="14.00">contact_us</text>
<text text-anchor="start" x="388" y="-849.3" font-family="Times,serif" font-size="14.00">faq</text>
<text text-anchor="start" x="388" y="-834.3" font-family="Times,serif" font-size="14.00">index</text>
<polyline fill="none" stroke="black" points="380,-826.5 511,-826.5 "/>
<polyline fill="none" stroke="black" points="380,-802.5 511,-802.5 "/>
<text text-anchor="start" x="388" y="-787.3" font-family="Times,serif" font-size="14.00">_layout</text>
</g>
<!-- LessonsController -->
<g id="node17" class="node"><title>LessonsController</title>
<path fill="none" stroke="black" d="M601,-38.5C601,-38.5 693,-38.5 693,-38.5 699,-38.5 705,-44.5 705,-50.5 705,-50.5 705,-224.5 705,-224.5 705,-230.5 699,-236.5 693,-236.5 693,-236.5 601,-236.5 601,-236.5 595,-236.5 589,-230.5 589,-224.5 589,-224.5 589,-50.5 589,-50.5 589,-44.5 595,-38.5 601,-38.5"/>
<text text-anchor="middle" x="647" y="-221.3" font-family="Times,serif" font-size="14.00">LessonsController</text>
<polyline fill="none" stroke="black" points="589,-213.5 705,-213.5 "/>
<text text-anchor="start" x="597" y="-198.3" font-family="Times,serif" font-size="14.00">create</text>
<text text-anchor="start" x="597" y="-183.3" font-family="Times,serif" font-size="14.00">destroy</text>
<text text-anchor="start" x="597" y="-168.3" font-family="Times,serif" font-size="14.00">edit</text>
<text text-anchor="start" x="597" y="-153.3" font-family="Times,serif" font-size="14.00">index</text>
<text text-anchor="start" x="597" y="-138.3" font-family="Times,serif" font-size="14.00">new</text>
<text text-anchor="start" x="597" y="-123.3" font-family="Times,serif" font-size="14.00">show</text>
<text text-anchor="start" x="597" y="-108.3" font-family="Times,serif" font-size="14.00">show_author</text>
<text text-anchor="start" x="597" y="-93.3" font-family="Times,serif" font-size="14.00">update</text>
<polyline fill="none" stroke="black" points="589,-85.5 705,-85.5 "/>
<polyline fill="none" stroke="black" points="589,-61.5 705,-61.5 "/>
<text text-anchor="start" x="597" y="-46.3" font-family="Times,serif" font-size="14.00">_layout</text>
</g>
</g>
</svg>
