<?xml version="1.0" encoding="UTF-8" standalone="no"?>
<!DOCTYPE svg PUBLIC "-//W3C//DTD SVG 1.1//EN"
 "http://www.w3.org/Graphics/SVG/1.1/DTD/svg11.dtd">
<!-- Generated by graphviz version 2.36.0 (20140111.2315)
 -->
<!-- Title: models_diagram Pages: 1 -->
<svg width="1342pt" height="746pt"
 viewBox="0.00 0.00 1342.00 746.00" xmlns="http://www.w3.org/2000/svg" xmlns:xlink="http://www.w3.org/1999/xlink">
<g id="graph0" class="graph" transform="scale(1 1) rotate(0) translate(4 742)">
<title>models_diagram</title>
<polygon fill="none" stroke="none" points="-4,4 -4,-742 1338,-742 1338,4 -4,4"/>
<!-- _diagram_info -->
<g id="node1" class="node"><title>_diagram_info</title>
<text text-anchor="start" x="8" y="-611.6" font-family="Times,serif" font-size="13.00">Models diagram</text>
<text text-anchor="start" x="8" y="-597.6" font-family="Times,serif" font-size="13.00">Date: Dec 01 2015 &#45; 19:34</text>
<text text-anchor="start" x="8" y="-583.6" font-family="Times,serif" font-size="13.00">Migration version: 20151107171723</text>
<text text-anchor="start" x="8" y="-569.6" font-family="Times,serif" font-size="13.00">Generated by RailRoady 1.4.1</text>
<text text-anchor="start" x="8" y="-555.6" font-family="Times,serif" font-size="13.00">http://railroady.prestonlee.com</text>
</g>
<!-- Upload -->
<g id="node2" class="node"><title>Upload</title>
<path fill="none" stroke="black" d="M132,-30.5C132,-30.5 352,-30.5 352,-30.5 358,-30.5 364,-36.5 364,-42.5 364,-42.5 364,-139.5 364,-139.5 364,-145.5 358,-151.5 352,-151.5 352,-151.5 132,-151.5 132,-151.5 126,-151.5 120,-145.5 120,-139.5 120,-139.5 120,-42.5 120,-42.5 120,-36.5 126,-30.5 132,-30.5"/>
<text text-anchor="middle" x="242" y="-136.3" font-family="Times,serif" font-size="14.00">Upload</text>
<polyline fill="none" stroke="black" points="120,-128.5 364,-128.5 "/>
<text text-anchor="start" x="128" y="-113.3" font-family="Times,serif" font-size="14.00">id :integer</text>
<text text-anchor="start" x="128" y="-98.3" font-family="Times,serif" font-size="14.00">upload :character varying</text>
<text text-anchor="start" x="128" y="-83.3" font-family="Times,serif" font-size="14.00">uploadable_type :character varying</text>
<text text-anchor="start" x="128" y="-68.3" font-family="Times,serif" font-size="14.00">uploadable_id :integer</text>
<text text-anchor="start" x="128" y="-53.3" font-family="Times,serif" font-size="14.00">created_at :timestamp without time zone</text>
<text text-anchor="start" x="128" y="-38.3" font-family="Times,serif" font-size="14.00">updated_at :timestamp without time zone</text>
</g>
<!-- Message -->
<g id="node3" class="node"><title>Message</title>
<path fill="none" stroke="black" d="M840,-504C840,-504 1060,-504 1060,-504 1066,-504 1072,-510 1072,-516 1072,-516 1072,-658 1072,-658 1072,-664 1066,-670 1060,-670 1060,-670 840,-670 840,-670 834,-670 828,-664 828,-658 828,-658 828,-516 828,-516 828,-510 834,-504 840,-504"/>
<text text-anchor="middle" x="950" y="-654.8" font-family="Times,serif" font-size="14.00">Message</text>
<polyline fill="none" stroke="black" points="828,-647 1072,-647 "/>
<text text-anchor="start" x="836" y="-631.8" font-family="Times,serif" font-size="14.00">id :integer</text>
<text text-anchor="start" x="836" y="-616.8" font-family="Times,serif" font-size="14.00">body :character varying</text>
<text text-anchor="start" x="836" y="-601.8" font-family="Times,serif" font-size="14.00">sender_id :integer</text>
<text text-anchor="start" x="836" y="-586.8" font-family="Times,serif" font-size="14.00">receiver_id :integer</text>
<text text-anchor="start" x="836" y="-571.8" font-family="Times,serif" font-size="14.00">title :character varying</text>
<text text-anchor="start" x="836" y="-556.8" font-family="Times,serif" font-size="14.00">created_at :timestamp without time zone</text>
<text text-anchor="start" x="836" y="-541.8" font-family="Times,serif" font-size="14.00">updated_at :timestamp without time zone</text>
<text text-anchor="start" x="836" y="-526.8" font-family="Times,serif" font-size="14.00">read :boolean</text>
<text text-anchor="start" x="836" y="-511.8" font-family="Times,serif" font-size="14.00">slug :character varying</text>
</g>
<!-- User -->
<g id="node4" class="node"><title>User</title>
<path fill="none" stroke="black" d="M508.5,-436.5C508.5,-436.5 797.5,-436.5 797.5,-436.5 803.5,-436.5 809.5,-442.5 809.5,-448.5 809.5,-448.5 809.5,-725.5 809.5,-725.5 809.5,-731.5 803.5,-737.5 797.5,-737.5 797.5,-737.5 508.5,-737.5 508.5,-737.5 502.5,-737.5 496.5,-731.5 496.5,-725.5 496.5,-725.5 496.5,-448.5 496.5,-448.5 496.5,-442.5 502.5,-436.5 508.5,-436.5"/>
<text text-anchor="middle" x="653" y="-722.3" font-family="Times,serif" font-size="14.00">User</text>
<polyline fill="none" stroke="black" points="496.5,-714.5 809.5,-714.5 "/>
<text text-anchor="start" x="504.5" y="-699.3" font-family="Times,serif" font-size="14.00">id :integer</text>
<text text-anchor="start" x="504.5" y="-684.3" font-family="Times,serif" font-size="14.00">email :character varying</text>
<text text-anchor="start" x="504.5" y="-669.3" font-family="Times,serif" font-size="14.00">encrypted_password :character varying</text>
<text text-anchor="start" x="504.5" y="-654.3" font-family="Times,serif" font-size="14.00">reset_password_token :character varying</text>
<text text-anchor="start" x="504.5" y="-639.3" font-family="Times,serif" font-size="14.00">reset_password_sent_at :timestamp without time zone</text>
<text text-anchor="start" x="504.5" y="-624.3" font-family="Times,serif" font-size="14.00">remember_created_at :timestamp without time zone</text>
<text text-anchor="start" x="504.5" y="-609.3" font-family="Times,serif" font-size="14.00">sign_in_count :integer</text>
<text text-anchor="start" x="504.5" y="-594.3" font-family="Times,serif" font-size="14.00">current_sign_in_at :timestamp without time zone</text>
<text text-anchor="start" x="504.5" y="-579.3" font-family="Times,serif" font-size="14.00">last_sign_in_at :timestamp without time zone</text>
<text text-anchor="start" x="504.5" y="-564.3" font-family="Times,serif" font-size="14.00">current_sign_in_ip :inet</text>
<text text-anchor="start" x="504.5" y="-549.3" font-family="Times,serif" font-size="14.00">last_sign_in_ip :inet</text>
<text text-anchor="start" x="504.5" y="-534.3" font-family="Times,serif" font-size="14.00">created_at :timestamp without time zone</text>
<text text-anchor="start" x="504.5" y="-519.3" font-family="Times,serif" font-size="14.00">updated_at :timestamp without time zone</text>
<text text-anchor="start" x="504.5" y="-504.3" font-family="Times,serif" font-size="14.00">first_name :character varying</text>
<text text-anchor="start" x="504.5" y="-489.3" font-family="Times,serif" font-size="14.00">last_name :character varying</text>
<text text-anchor="start" x="504.5" y="-474.3" font-family="Times,serif" font-size="14.00">bio :character varying</text>
<text text-anchor="start" x="504.5" y="-459.3" font-family="Times,serif" font-size="14.00">role_id :integer</text>
<text text-anchor="start" x="504.5" y="-444.3" font-family="Times,serif" font-size="14.00">slug :character varying</text>
</g>
<!-- Comment -->
<g id="node6" class="node"><title>Comment</title>
<path fill="none" stroke="black" d="M394,-30.5C394,-30.5 614,-30.5 614,-30.5 620,-30.5 626,-36.5 626,-42.5 626,-42.5 626,-139.5 626,-139.5 626,-145.5 620,-151.5 614,-151.5 614,-151.5 394,-151.5 394,-151.5 388,-151.5 382,-145.5 382,-139.5 382,-139.5 382,-42.5 382,-42.5 382,-36.5 388,-30.5 394,-30.5"/>
<text text-anchor="middle" x="504" y="-136.3" font-family="Times,serif" font-size="14.00">Comment</text>
<polyline fill="none" stroke="black" points="382,-128.5 626,-128.5 "/>
<text text-anchor="start" x="390" y="-113.3" font-family="Times,serif" font-size="14.00">id :integer</text>
<text text-anchor="start" x="390" y="-98.3" font-family="Times,serif" font-size="14.00">comment :character varying</text>
<text text-anchor="start" x="390" y="-83.3" font-family="Times,serif" font-size="14.00">user_id :integer</text>
<text text-anchor="start" x="390" y="-68.3" font-family="Times,serif" font-size="14.00">lesson_id :integer</text>
<text text-anchor="start" x="390" y="-53.3" font-family="Times,serif" font-size="14.00">created_at :timestamp without time zone</text>
<text text-anchor="start" x="390" y="-38.3" font-family="Times,serif" font-size="14.00">updated_at :timestamp without time zone</text>
</g>
<!-- User&#45;&gt;Comment -->
<g id="edge2" class="edge"><title>User&#45;&gt;Comment</title>
<path fill="none" stroke="#108b54" d="M535.079,-429.11C530.498,-419.516 526.414,-409.782 523,-400 495.741,-321.9 494.452,-225.967 497.723,-162.123"/>
<ellipse fill="none" stroke="#108b54" cx="536.91" cy="-432.829" rx="4.00002" ry="4.00002"/>
<polygon fill="#108b54" stroke="#108b54" points="497.743,-161.752 502.8,-152.021 498.025,-156.759 498.307,-151.767 498.307,-151.767 498.307,-151.767 498.025,-156.759 493.815,-151.514 497.743,-161.752 497.743,-161.752"/>
</g>
<!-- Lesson -->
<g id="node8" class="node"><title>Lesson</title>
<path fill="none" stroke="black" d="M244,-218.5C244,-218.5 464,-218.5 464,-218.5 470,-218.5 476,-224.5 476,-230.5 476,-230.5 476,-387.5 476,-387.5 476,-393.5 470,-399.5 464,-399.5 464,-399.5 244,-399.5 244,-399.5 238,-399.5 232,-393.5 232,-387.5 232,-387.5 232,-230.5 232,-230.5 232,-224.5 238,-218.5 244,-218.5"/>
<text text-anchor="middle" x="354" y="-384.3" font-family="Times,serif" font-size="14.00">Lesson</text>
<polyline fill="none" stroke="black" points="232,-376.5 476,-376.5 "/>
<text text-anchor="start" x="240" y="-361.3" font-family="Times,serif" font-size="14.00">id :integer</text>
<text text-anchor="start" x="240" y="-346.3" font-family="Times,serif" font-size="14.00">description :character varying</text>
<text text-anchor="start" x="240" y="-331.3" font-family="Times,serif" font-size="14.00">title :character varying</text>
<text text-anchor="start" x="240" y="-316.3" font-family="Times,serif" font-size="14.00">category_id :integer</text>
<text text-anchor="start" x="240" y="-301.3" font-family="Times,serif" font-size="14.00">level :character varying</text>
<text text-anchor="start" x="240" y="-286.3" font-family="Times,serif" font-size="14.00">created_at :timestamp without time zone</text>
<text text-anchor="start" x="240" y="-271.3" font-family="Times,serif" font-size="14.00">updated_at :timestamp without time zone</text>
<text text-anchor="start" x="240" y="-256.3" font-family="Times,serif" font-size="14.00">user_id :integer</text>
<text text-anchor="start" x="240" y="-241.3" font-family="Times,serif" font-size="14.00">slug :character varying</text>
<text text-anchor="start" x="240" y="-226.3" font-family="Times,serif" font-size="14.00">file :character varying</text>
</g>
<!-- User&#45;&gt;Lesson -->
<g id="edge3" class="edge"><title>User&#45;&gt;Lesson</title>
<path fill="none" stroke="#c6f949" d="M490.365,-435.875C479.644,-425.979 469.014,-416.167 458.698,-406.644"/>
<ellipse fill="none" stroke="#c6f949" cx="493.555" cy="-438.82" rx="4.00002" ry="4.00002"/>
<polygon fill="#c6f949" stroke="#c6f949" points="458.593,-406.547 454.297,-396.458 454.919,-403.156 451.245,-399.764 451.245,-399.764 451.245,-399.764 454.919,-403.156 448.192,-403.071 458.593,-406.547 458.593,-406.547"/>
</g>
<!-- Image -->
<g id="node9" class="node"><title>Image</title>
<path fill="none" stroke="black" d="M544,-248.5C544,-248.5 764,-248.5 764,-248.5 770,-248.5 776,-254.5 776,-260.5 776,-260.5 776,-357.5 776,-357.5 776,-363.5 770,-369.5 764,-369.5 764,-369.5 544,-369.5 544,-369.5 538,-369.5 532,-363.5 532,-357.5 532,-357.5 532,-260.5 532,-260.5 532,-254.5 538,-248.5 544,-248.5"/>
<text text-anchor="middle" x="654" y="-354.3" font-family="Times,serif" font-size="14.00">Image</text>
<polyline fill="none" stroke="black" points="532,-346.5 776,-346.5 "/>
<text text-anchor="start" x="540" y="-331.3" font-family="Times,serif" font-size="14.00">id :integer</text>
<text text-anchor="start" x="540" y="-316.3" font-family="Times,serif" font-size="14.00">upload :character varying</text>
<text text-anchor="start" x="540" y="-301.3" font-family="Times,serif" font-size="14.00">uploadable_type :character varying</text>
<text text-anchor="start" x="540" y="-286.3" font-family="Times,serif" font-size="14.00">uploadable_id :integer</text>
<text text-anchor="start" x="540" y="-271.3" font-family="Times,serif" font-size="14.00">created_at :timestamp without time zone</text>
<text text-anchor="start" x="540" y="-256.3" font-family="Times,serif" font-size="14.00">updated_at :timestamp without time zone</text>
</g>
<!-- User&#45;&gt;Image -->
<g id="edge1" class="edge"><title>User&#45;&gt;Image</title>
<path fill="none" stroke="#7bfdee" d="M653.572,-428.025C653.633,-411.222 653.693,-394.823 653.747,-379.853"/>
<ellipse fill="none" stroke="#7bfdee" cx="653.557" cy="-432.288" rx="4" ry="4"/>
<polygon fill="#7bfdee" stroke="#7bfdee" points="653.747,-379.73 658.284,-369.746 653.765,-374.73 653.784,-369.73 653.784,-369.73 653.784,-369.73 653.765,-374.73 649.284,-369.714 653.747,-379.73 653.747,-379.73"/>
</g>
<!-- LessonRating -->
<g id="node10" class="node"><title>LessonRating</title>
<path fill="none" stroke="black" d="M675,-0.5C675,-0.5 895,-0.5 895,-0.5 901,-0.5 907,-6.5 907,-12.5 907,-12.5 907,-169.5 907,-169.5 907,-175.5 901,-181.5 895,-181.5 895,-181.5 675,-181.5 675,-181.5 669,-181.5 663,-175.5 663,-169.5 663,-169.5 663,-12.5 663,-12.5 663,-6.5 669,-0.5 675,-0.5"/>
<text text-anchor="middle" x="785" y="-166.3" font-family="Times,serif" font-size="14.00">LessonRating</text>
<polyline fill="none" stroke="black" points="663,-158.5 907,-158.5 "/>
<text text-anchor="start" x="671" y="-143.3" font-family="Times,serif" font-size="14.00">id :integer</text>
<text text-anchor="start" x="671" y="-128.3" font-family="Times,serif" font-size="14.00">communication :integer</text>
<text text-anchor="start" x="671" y="-113.3" font-family="Times,serif" font-size="14.00">quality :integer</text>
<text text-anchor="start" x="671" y="-98.3" font-family="Times,serif" font-size="14.00">teaching :integer</text>
<text text-anchor="start" x="671" y="-83.3" font-family="Times,serif" font-size="14.00">general_grade :integer</text>
<text text-anchor="start" x="671" y="-68.3" font-family="Times,serif" font-size="14.00">lesson_id :integer</text>
<text text-anchor="start" x="671" y="-53.3" font-family="Times,serif" font-size="14.00">user_id :integer</text>
<text text-anchor="start" x="671" y="-38.3" font-family="Times,serif" font-size="14.00">avg :integer</text>
<text text-anchor="start" x="671" y="-23.3" font-family="Times,serif" font-size="14.00">created_at :timestamp without time zone</text>
<text text-anchor="start" x="671" y="-8.3" font-family="Times,serif" font-size="14.00">updated_at :timestamp without time zone</text>
</g>
<!-- User&#45;&gt;LessonRating -->
<g id="edge4" class="edge"><title>User&#45;&gt;LessonRating</title>
<path fill="none" stroke="#fe55d3" d="M773.671,-429.007C778.05,-419.468 781.885,-409.771 785,-400 806.384,-332.919 805.771,-253.364 800.132,-191.912"/>
<ellipse fill="none" stroke="#fe55d3" cx="771.937" cy="-432.656" rx="4.00002" ry="4.00002"/>
<polygon fill="#fe55d3" stroke="#fe55d3" points="800.118,-191.775 803.625,-181.385 799.632,-186.798 799.146,-181.822 799.146,-181.822 799.146,-181.822 799.632,-186.798 794.667,-182.26 800.118,-191.775 800.118,-191.775"/>
</g>
<!-- Category -->
<g id="node5" class="node"><title>Category</title>
<path fill="none" stroke="black" d="M244,-534C244,-534 464,-534 464,-534 470,-534 476,-540 476,-546 476,-546 476,-628 476,-628 476,-634 470,-640 464,-640 464,-640 244,-640 244,-640 238,-640 232,-634 232,-628 232,-628 232,-546 232,-546 232,-540 238,-534 244,-534"/>
<text text-anchor="middle" x="354" y="-624.8" font-family="Times,serif" font-size="14.00">Category</text>
<polyline fill="none" stroke="black" points="232,-617 476,-617 "/>
<text text-anchor="start" x="240" y="-601.8" font-family="Times,serif" font-size="14.00">id :integer</text>
<text text-anchor="start" x="240" y="-586.8" font-family="Times,serif" font-size="14.00">name :character varying</text>
<text text-anchor="start" x="240" y="-571.8" font-family="Times,serif" font-size="14.00">created_at :timestamp without time zone</text>
<text text-anchor="start" x="240" y="-556.8" font-family="Times,serif" font-size="14.00">updated_at :timestamp without time zone</text>
<text text-anchor="start" x="240" y="-541.8" font-family="Times,serif" font-size="14.00">image_url :character varying</text>
</g>
<!-- Category&#45;&gt;Lesson -->
<g id="edge5" class="edge"><title>Category&#45;&gt;Lesson</title>
<path fill="none" stroke="#b17316" d="M354,-525.598C354,-491.779 354,-448.747 354,-410.037"/>
<ellipse fill="none" stroke="#b17316" cx="354" cy="-529.762" rx="4" ry="4"/>
<polygon fill="#b17316" stroke="#b17316" points="354,-409.773 358.5,-399.773 354,-404.773 354,-399.773 354,-399.773 354,-399.773 354,-404.773 349.5,-399.773 354,-409.773 354,-409.773"/>
</g>
<!-- ContactMessage -->
<g id="node7" class="node"><title>ContactMessage</title>
<path fill="none" stroke="black" d="M1102,-496.5C1102,-496.5 1322,-496.5 1322,-496.5 1328,-496.5 1334,-502.5 1334,-508.5 1334,-508.5 1334,-665.5 1334,-665.5 1334,-671.5 1328,-677.5 1322,-677.5 1322,-677.5 1102,-677.5 1102,-677.5 1096,-677.5 1090,-671.5 1090,-665.5 1090,-665.5 1090,-508.5 1090,-508.5 1090,-502.5 1096,-496.5 1102,-496.5"/>
<text text-anchor="middle" x="1212" y="-662.3" font-family="Times,serif" font-size="14.00">ContactMessage</text>
<polyline fill="none" stroke="black" points="1090,-654.5 1334,-654.5 "/>
<text text-anchor="start" x="1098" y="-639.3" font-family="Times,serif" font-size="14.00">id :integer</text>
<text text-anchor="start" x="1098" y="-624.3" font-family="Times,serif" font-size="14.00">first_name :character varying</text>
<text text-anchor="start" x="1098" y="-609.3" font-family="Times,serif" font-size="14.00">string :character varying</text>
<text text-anchor="start" x="1098" y="-594.3" font-family="Times,serif" font-size="14.00">last_name :character varying</text>
<text text-anchor="start" x="1098" y="-579.3" font-family="Times,serif" font-size="14.00">subject :character varying</text>
<text text-anchor="start" x="1098" y="-564.3" font-family="Times,serif" font-size="14.00">email :character varying</text>
<text text-anchor="start" x="1098" y="-549.3" font-family="Times,serif" font-size="14.00">message :character varying</text>
<text text-anchor="start" x="1098" y="-534.3" font-family="Times,serif" font-size="14.00">created_at :timestamp without time zone</text>
<text text-anchor="start" x="1098" y="-519.3" font-family="Times,serif" font-size="14.00">updated_at :timestamp without time zone</text>
<text text-anchor="start" x="1098" y="-504.3" font-family="Times,serif" font-size="14.00">read :boolean</text>
</g>
<!-- Lesson&#45;&gt;Upload -->
<g id="edge7" class="edge"><title>Lesson&#45;&gt;Upload</title>
<path fill="none" stroke="#d4a6bd" d="M303.769,-211.127C294.979,-194.174 285.997,-176.852 277.702,-160.854"/>
<ellipse fill="none" stroke="#d4a6bd" cx="305.634" cy="-214.722" rx="4.00002" ry="4.00002"/>
<polygon fill="#d4a6bd" stroke="#d4a6bd" points="277.508,-160.479 276.899,-149.53 275.206,-156.04 272.904,-151.601 272.904,-151.601 272.904,-151.601 275.206,-156.04 268.91,-153.673 277.508,-160.479 277.508,-160.479"/>
</g>
<!-- Lesson&#45;&gt;Comment -->
<g id="edge8" class="edge"><title>Lesson&#45;&gt;Comment</title>
<path fill="none" stroke="#5eb53b" d="M420.904,-211.658C432.996,-194.246 445.372,-176.424 456.755,-160.033"/>
<ellipse fill="none" stroke="#5eb53b" cx="418.592" cy="-214.988" rx="4.00002" ry="4.00002"/>
<polygon fill="#5eb53b" stroke="#5eb53b" points="456.906,-159.815 466.306,-154.168 459.758,-155.708 462.61,-151.601 462.61,-151.601 462.61,-151.601 459.758,-155.708 458.914,-149.035 456.906,-159.815 456.906,-159.815"/>
</g>
<!-- Lesson&#45;&gt;LessonRating -->
<g id="edge6" class="edge"><title>Lesson&#45;&gt;LessonRating</title>
<path fill="none" stroke="#c849dc" d="M483.715,-235.96C496.836,-229.57 510.084,-223.463 523,-218 571.155,-197.631 587.381,-203.592 635,-182 641.133,-179.219 647.328,-176.245 653.529,-173.132"/>
<ellipse fill="none" stroke="#c849dc" cx="480.031" cy="-237.772" rx="4.00002" ry="4.00002"/>
<polygon fill="#c849dc" stroke="#c849dc" points="653.713,-173.038 664.665,-172.482 658.163,-170.758 662.613,-168.478 662.613,-168.478 662.613,-168.478 658.163,-170.758 660.561,-164.473 653.713,-173.038 653.713,-173.038"/>
</g>
</g>
</svg>
