<?xml version="1.0" encoding="UTF-8" standalone="no"?>
<!DOCTYPE svg PUBLIC "-//W3C//DTD SVG 1.1//EN"
 "http://www.w3.org/Graphics/SVG/1.1/DTD/svg11.dtd">
<!-- Generated by graphviz version 2.36.0 (20140111.2315)
 -->
<!-- Title: models_diagram Pages: 1 -->
<svg width="677pt" height="230pt"
 viewBox="0.00 0.00 677.00 230.00" xmlns="http://www.w3.org/2000/svg" xmlns:xlink="http://www.w3.org/1999/xlink">
<g id="graph0" class="graph" transform="scale(1 1) rotate(0) translate(4 226)">
<title>models_diagram</title>
<polygon fill="none" stroke="none" points="-4,4 -4,-226 673,-226 673,4 -4,4"/>
<!-- _diagram_info -->
<g id="node1" class="node"><title>_diagram_info</title>
<text text-anchor="start" x="8" y="-207.6" font-family="Times,serif" font-size="13.00">Models diagram</text>
<text text-anchor="start" x="8" y="-193.6" font-family="Times,serif" font-size="13.00">Date: Dec 01 2015 &#45; 19:35</text>
<text text-anchor="start" x="8" y="-179.6" font-family="Times,serif" font-size="13.00">Migration version: 20151107171723</text>
<text text-anchor="start" x="8" y="-165.6" font-family="Times,serif" font-size="13.00">Generated by RailRoady 1.4.1</text>
<text text-anchor="start" x="8" y="-151.6" font-family="Times,serif" font-size="13.00">http://railroady.prestonlee.com</text>
</g>
<!-- Upload -->
<g id="node2" class="node"><title>Upload</title>
<ellipse fill="none" stroke="black" cx="237" cy="-18" rx="36.096" ry="18"/>
<text text-anchor="middle" x="237" y="-14.3" font-family="Times,serif" font-size="14.00">Upload</text>
</g>
<!-- Message -->
<g id="node3" class="node"><title>Message</title>
<ellipse fill="none" stroke="black" cx="470" cy="-183" rx="42.3701" ry="18"/>
<text text-anchor="middle" x="470" y="-179.3" font-family="Times,serif" font-size="14.00">Message</text>
</g>
<!-- User -->
<g id="node4" class="node"><title>User</title>
<ellipse fill="none" stroke="black" cx="382" cy="-183" rx="26.949" ry="18"/>
<text text-anchor="middle" x="382" y="-179.3" font-family="Times,serif" font-size="14.00">User</text>
</g>
<!-- Comment -->
<g id="node6" class="node"><title>Comment</title>
<ellipse fill="none" stroke="black" cx="338" cy="-18" rx="46.2191" ry="18"/>
<text text-anchor="middle" x="338" y="-14.3" font-family="Times,serif" font-size="14.00">Comment</text>
</g>
<!-- User&#45;&gt;Comment -->
<g id="edge2" class="edge"><title>User&#45;&gt;Comment</title>
<path fill="none" stroke="#3ea685" d="M373.413,-157.471C368.557,-143.144 362.563,-124.66 358,-108 352.388,-87.5087 347.165,-64.0525 343.465,-46.3664"/>
<ellipse fill="none" stroke="#3ea685" cx="374.826" cy="-161.597" rx="4.00001" ry="4.00001"/>
<polygon fill="#3ea685" stroke="#3ea685" points="343.384,-45.9727 345.776,-35.2708 342.376,-41.0754 341.368,-36.178 341.368,-36.178 341.368,-36.178 342.376,-41.0754 336.96,-37.0852 343.384,-45.9727 343.384,-45.9727"/>
</g>
<!-- Lesson -->
<g id="node8" class="node"><title>Lesson</title>
<ellipse fill="none" stroke="black" cx="275" cy="-90" rx="35.6194" ry="18"/>
<text text-anchor="middle" x="275" y="-86.3" font-family="Times,serif" font-size="14.00">Lesson</text>
</g>
<!-- User&#45;&gt;Lesson -->
<g id="edge3" class="edge"><title>User&#45;&gt;Lesson</title>
<path fill="none" stroke="#e0b0de" d="M359.599,-162.949C342.277,-148.217 318.29,-127.817 300.281,-112.501"/>
<ellipse fill="none" stroke="#e0b0de" cx="362.702" cy="-165.588" rx="4.00002" ry="4.00002"/>
<polygon fill="#e0b0de" stroke="#e0b0de" points="300.09,-112.338 295.388,-102.432 296.281,-109.099 292.472,-105.86 292.472,-105.86 292.472,-105.86 296.281,-109.099 289.557,-109.288 300.09,-112.338 300.09,-112.338"/>
</g>
<!-- Image -->
<g id="node9" class="node"><title>Image</title>
<ellipse fill="none" stroke="black" cx="400" cy="-90" rx="33.2209" ry="18"/>
<text text-anchor="middle" x="400" y="-86.3" font-family="Times,serif" font-size="14.00">Image</text>
</g>
<!-- User&#45;&gt;Image -->
<g id="edge1" class="edge"><title>User&#45;&gt;Image</title>
<path fill="none" stroke="#0f4d8d" d="M386.999,-156.729C389.373,-144.725 392.214,-130.362 394.634,-118.129"/>
<ellipse fill="none" stroke="#0f4d8d" cx="386.162" cy="-160.96" rx="4.00001" ry="4.00001"/>
<polygon fill="#0f4d8d" stroke="#0f4d8d" points="394.689,-117.85 401.044,-108.913 395.659,-112.945 396.63,-108.04 396.63,-108.04 396.63,-108.04 395.659,-112.945 392.215,-107.166 394.689,-117.85 394.689,-117.85"/>
</g>
<!-- LessonRating -->
<g id="node10" class="node"><title>LessonRating</title>
<ellipse fill="none" stroke="black" cx="461" cy="-18" rx="59.2173" ry="18"/>
<text text-anchor="middle" x="461" y="-14.3" font-family="Times,serif" font-size="14.00">LessonRating</text>
</g>
<!-- User&#45;&gt;LessonRating -->
<g id="edge4" class="edge"><title>User&#45;&gt;LessonRating</title>
<path fill="none" stroke="#484daa" d="M402.755,-161.888C415.938,-147.954 432.29,-128.317 442,-108 451.34,-88.4568 456.125,-64.3215 458.555,-46.117"/>
<ellipse fill="none" stroke="#484daa" cx="399.74" cy="-164.998" rx="4.00002" ry="4.00002"/>
<polygon fill="#484daa" stroke="#484daa" points="458.558,-46.0944 464.2,-36.6913 459.145,-41.1289 459.731,-36.1634 459.731,-36.1634 459.731,-36.1634 459.145,-41.1289 455.262,-35.6356 458.558,-46.0944 458.558,-46.0944"/>
</g>
<!-- Category -->
<g id="node5" class="node"><title>Category</title>
<ellipse fill="none" stroke="black" cx="275" cy="-183" rx="42.3456" ry="18"/>
<text text-anchor="middle" x="275" y="-179.3" font-family="Times,serif" font-size="14.00">Category</text>
</g>
<!-- Category&#45;&gt;Lesson -->
<g id="edge5" class="edge"><title>Category&#45;&gt;Lesson</title>
<path fill="none" stroke="#cf2c2b" d="M275,-156.729C275,-144.725 275,-130.362 275,-118.129"/>
<ellipse fill="none" stroke="#cf2c2b" cx="275" cy="-160.884" rx="4" ry="4"/>
<polygon fill="#cf2c2b" stroke="#cf2c2b" points="275,-118.04 279.5,-108.04 275,-113.04 275,-108.04 275,-108.04 275,-108.04 275,-113.04 270.5,-108.04 275,-118.04 275,-118.04"/>
</g>
<!-- ContactMessage -->
<g id="node7" class="node"><title>ContactMessage</title>
<ellipse fill="none" stroke="black" cx="600" cy="-183" rx="69.3156" ry="18"/>
<text text-anchor="middle" x="600" y="-179.3" font-family="Times,serif" font-size="14.00">ContactMessage</text>
</g>
<!-- Lesson&#45;&gt;Upload -->
<g id="edge7" class="edge"><title>Lesson&#45;&gt;Upload</title>
<path fill="none" stroke="#6a26f2" d="M262.101,-65.2379C258.446,-58.5062 254.455,-51.154 250.752,-44.3333"/>
<ellipse fill="none" stroke="#6a26f2" cx="264.086" cy="-68.8956" rx="4.00002" ry="4.00002"/>
<polygon fill="#6a26f2" stroke="#6a26f2" points="250.712,-44.2585 249.896,-33.323 248.326,-39.8642 245.941,-35.4699 245.941,-35.4699 245.941,-35.4699 248.326,-39.8642 241.986,-37.6169 250.712,-44.2585 250.712,-44.2585"/>
</g>
<!-- Lesson&#45;&gt;Comment -->
<g id="edge8" class="edge"><title>Lesson&#45;&gt;Comment</title>
<path fill="none" stroke="#a852b7" d="M294.496,-67.3382C301.432,-59.6307 309.282,-50.9083 316.386,-43.0154"/>
<ellipse fill="none" stroke="#a852b7" cx="291.658" cy="-70.4915" rx="4.00002" ry="4.00002"/>
<polygon fill="#a852b7" stroke="#a852b7" points="316.49,-42.9001 326.524,-38.4775 319.835,-39.1837 323.18,-35.4672 323.18,-35.4672 323.18,-35.4672 319.835,-39.1837 319.835,-32.4568 316.49,-42.9001 316.49,-42.9001"/>
</g>
<!-- Lesson&#45;&gt;LessonRating -->
<g id="edge6" class="edge"><title>Lesson&#45;&gt;LessonRating</title>
<path fill="none" stroke="#0e05e5" d="M310.451,-75.6582C340.323,-64.416 383.247,-48.2618 415.624,-36.0769"/>
<ellipse fill="none" stroke="#0e05e5" cx="306.59" cy="-77.1114" rx="4.00001" ry="4.00001"/>
<polygon fill="#0e05e5" stroke="#0e05e5" points="415.948,-35.955 426.893,-36.6442 420.628,-34.1938 425.308,-32.4326 425.308,-32.4326 425.308,-32.4326 420.628,-34.1938 423.723,-28.221 415.948,-35.955 415.948,-35.955"/>
</g>
</g>
</svg>
